<?xml version="1.0" encoding="utf-8"?>
<!-- Generator: Adobe Illustrator 16.0.0, SVG Export Plug-In . SVG Version: 6.00 Build 0)  -->
<!DOCTYPE svg PUBLIC "-//W3C//DTD SVG 1.1//EN" "http://www.w3.org/Graphics/SVG/1.1/DTD/svg11.dtd">
<svg version="1.1" id="Layer_1" xmlns="http://www.w3.org/2000/svg" xmlns:xlink="http://www.w3.org/1999/xlink" x="0px" y="0px"
	 width="127.434px" height="132.743px" viewBox="0 0 127.434 132.743" enable-background="new 0 0 127.434 132.743"
	 xml:space="preserve">
<path fill="#FFF6F4" d="M116.223,125.064c1.031-1.183,1.322-2.729,1.391-3.747V54.76c0,0-4.625-34.875-36.125-44.375
	s-66,6.625-72.125,44l-0.781,63.219c0.062,4.197,1.105,6.178,1.809,7.006c1.939,1.811,5.407,3.465,10.099-0.6
	c7.5-6.5,8.375-10,12.75-6.875s5.875,9.75,13.625,9.25s12.75-9,13.75-9.625s4.375-1.875,7,1.25s5.375,8.25,12.875,7.875
	s12.625-8.375,12.625-8.375s2.25-3.875,7.25,0.375s7.625,9.75,14.375,8.125C114.739,126.01,115.412,125.902,116.223,125.064z"/>
<circle fill="#013E51" cx="86.238" cy="57.885" r="6.667"/>
<circle fill="#013E51" cx="40.072" cy="57.885" r="6.667"/>
<path fill="#013E51" d="M55.106,65.729c-0.05,1.108,0.809,2.046,1.917,2.095c0.673,0.029,1.28-0.279,1.667-0.771
	c0.758-0.766,2.482-2.234,4.696-2.357c1.695-0.094,3.438,0.625,5.19,2.137c0.003,0.003,0.007,0.006,0.011,0.009l-0.002-0.005
	c0.332,0.293,0.758,0.488,1.235,0.508c1.108,0.049,2.046-0.809,2.095-1.917c0.032-0.724-0.327-1.37-0.887-1.749
	c0.001,0,0.002,0.001,0.003,0.001c-2.221-1.871-4.536-2.88-6.912-2.986c-0.333-0.014-0.67-0.012-1.007,0.01
	c-3.163,0.191-5.572,1.942-6.888,3.166l-0.452,0.453c-0.021,0.019-0.04,0.041-0.061,0.061l-0.033,0.034
	c0.007-0.007,0.015-0.014,0.021-0.021C55.356,64.74,55.13,65.204,55.106,65.729z"/>
<circle fill="#FCEFED" stroke="#FEEBE6" stroke-miterlimit="10" cx="18.614" cy="99.425" r="3.292"/>
<circle fill="#FCEFED" stroke="#FEEBE6" stroke-miterlimit="10" cx="95.364" cy="28.676" r="3.291"/>
<circle fill="#FCEFED" stroke="#FEEBE6" stroke-miterlimit="10" cx="24.739" cy="93.55" r="2.667"/>
<circle fill="#FCEFED" stroke="#FEEBE6" stroke-miterlimit="10" cx="101.489" cy="33.051" r="2.666"/>
<circle fill="#FCEFED" stroke="#FEEBE6" stroke-miterlimit="10" cx="18.738" cy="87.716" r="2.833"/>
<path fill="#FCEFED" stroke="#FEEBE6" stroke-miterlimit="10" d="M116.279,55.814c-0.021-0.286-2.323-28.744-30.221-41.012
	c-7.807-3.433-15.777-5.173-23.691-5.173c-16.889,0-30.283,7.783-37.187,15.067c-9.229,9.736-13.841,26.712-14.191,30.259
	l-0.748,62.333c0.149,2.133,1.389,6.166,5.019,6.166c1.892,0,4.074-1.082,6.673-3.311c4.96-4.251,7.424-6.295,9.226-6.295
	c1.339,0,2.712,1.213,5.102,3.762c4.121,4.396,7.461,6.355,10.833,6.355c2.714,0,5.312-1.297,7.942-3.963
	c3.104-3.145,5.701-5.238,8.285-5.238c2.116,0,4.44,1.421,7.316,4.473c2.639,2.801,5.675,4.219,9.022,4.219
	c4.835,0,8.991-2.959,11.27-5.728l0.087-0.104c1.809-2.199,3.236-3.938,5.312-3.938c2.208,0,5.271,1.941,9.359,5.936
	c0.54,0.744,3.552,4.674,6.859,4.674c1.37,0,2.56-0.649,3.531-1.932l0.203-0.268L116.279,55.814z M114.281,121.405
	c-0.526,0.6-1.096,0.891-1.734,0.891c-2.053,0-4.51-2.819-5.282-3.906l-0.116-0.137c-4.639-4.541-7.976-6.565-10.82-6.565
	c-3.021,0-4.884,2.267-6.857,4.667l-0.086,0.104c-1.896,2.308-5.582,5-9.725,5c-2.775,0-5.322-1.209-7.567-3.59
	c-3.324-3.529-6.029-5.103-8.771-5.103c-3.278,0-6.251,2.332-9.708,5.835c-2.236,2.266-4.368,3.365-6.519,3.365
	c-2.771,0-5.663-1.764-9.374-5.723c-2.487-2.654-4.289-4.395-6.561-4.395c-2.515,0-5.045,2.076-10.527,6.777
	c-2.727,2.336-4.426,2.828-5.37,2.828c-2.661,0-3.017-4.226-3.021-4.226l0.745-62.163c0.332-3.321,4.767-19.625,13.646-28.995
	c3.894-4.106,10.388-8.632,18.603-11.504c-0.458,0.503-0.744,1.165-0.744,1.898c0,1.565,1.269,2.833,2.833,2.833
	s2.833-1.269,2.833-2.833c0-1.355-0.954-2.485-2.226-2.764c4.419-1.285,9.269-2.074,14.437-2.074c7.636,0,15.336,1.684,22.887,5.004
	c26.767,11.771,29.012,39.047,29.027,39.251v65.524H114.281z"/>
</svg>
